<svg width="680" height="384" viewBox="0 0 680 384" fill="none" xmlns="http://www.w3.org/2000/svg">
<path d="M234 190C234 161.281 210.943 138 182.5 138C154.057 138 131 161.281 131 190C131 218.719 154.057 242 182.5 242C210.943 242 234 218.719 234 190Z" fill="#00A37F" fill-opacity="0.05"/>
<path d="M303 324C303 295.281 279.943 272 251.5 272C223.057 272 200 295.281 200 324C200 352.719 223.057 376 251.5 376C279.943 376 303 352.719 303 324Z" fill="#00A37F" fill-opacity="0.05"/>
<path d="M528.169 108.299C528.169 57.3237 487.389 16 437.085 16C386.78 16 346 57.3237 346 108.299C346 159.274 386.78 200.598 437.085 200.598C487.389 200.598 528.169 159.274 528.169 108.299Z" fill="#00A37F" fill-opacity="0.05"/>
<ellipse rx="43.4092" ry="44.2521" transform="matrix(1 0 0 -1 540.823 299.581)" fill="#00A37F" fill-opacity="0.1"/>
<ellipse rx="15" ry="15.5" transform="matrix(1 0 0 -1 487 347.5)" fill="#00A37F" fill-opacity="0.05"/>
<ellipse rx="20.6068" ry="21.1033" transform="matrix(1 0 0 -1 339.607 21.1032)" fill="#00A37F" fill-opacity="0.05"/>
<path d="M127.5 95H108C94.7452 95 84 105.745 84 119V158C84 171.255 94.7452 182 108 182H190.5" stroke="#00A37F" stroke-opacity="0.4" stroke-width="2" stroke-linecap="round" stroke-dasharray="4 8"/>
<path d="M587.716 76H591.5C604.755 76 615.5 86.7452 615.5 100V132C615.5 145.255 604.755 156 591.5 156H536" stroke="#00A37F" stroke-opacity="0.4" stroke-width="2" stroke-linecap="round" stroke-dasharray="4 8"/>
<path d="M616 204V196C616 182.745 605.255 172 592 172H525" stroke="#00A37F" stroke-opacity="0.4" stroke-width="2" stroke-linecap="round" stroke-dasharray="4 8"/>
<path d="M162.5 198H124C110.745 198 100 208.746 100 222V222C100 235.255 110.745 246 124 246H182" stroke="#00A37F" stroke-opacity="0.4" stroke-width="2" stroke-linecap="round" stroke-dasharray="4 8"/>
<g filter="url(#filter0_d)">
<rect x="160" y="56" width="392" height="264" rx="16" fill="#2E3434"/>
<rect x="169" y="65" width="374" height="246" rx="7" fill="white" stroke="black" stroke-width="2"/>
<path d="M211 103.5L198.5 116L211 128.5" stroke="#868A8A" stroke-width="8" stroke-linecap="round" stroke-linejoin="round"/>
<path d="M249.5 104L224 128.5" stroke="#868A8A" stroke-width="8" stroke-linecap="round" stroke-linejoin="round"/>
<path d="M262 103.5L274.5 116L262 128.5" stroke="#868A8A" stroke-width="8" stroke-linecap="round" stroke-linejoin="round"/>
<rect width="280" height="8" rx="4" transform="matrix(1 0 0 -1 192 160)" fill="#EAEDED"/>
<rect width="280" height="8" rx="4" transform="matrix(1 0 0 -1 192 224)" fill="#EAEDED"/>
<rect width="176" height="8" rx="4" transform="matrix(1 0 0 -1 192 192)" fill="#EAEDED"/>
<rect width="152" height="8" rx="4" transform="matrix(1 0 0 -1 192 256)" fill="#EAEDED"/>
<rect width="258" height="8" rx="4" transform="matrix(1 0 0 -1 192 176)" fill="#EAEDED"/>
<rect width="176" height="8" rx="4" transform="matrix(1 0 0 -1 192 240)" fill="#EAEDED"/>
<rect width="72" height="8" rx="4" transform="matrix(1 0 0 -1 192 208)" fill="#EAEDED"/>
<rect width="24" height="8" rx="4" transform="matrix(1 0 0 -1 192 272)" fill="#00A37F"/>
</g>
<g filter="url(#filter1_d)">
<path d="M83.9945 145.989C117.129 145.989 143.989 119.129 143.989 85.9945C143.989 52.8605 117.129 26 83.9945 26C50.8605 26 24 52.8605 24 85.9945C24 119.129 50.8605 145.989 83.9945 145.989Z" fill="white"/>
<rect opacity="0.6" x="61" y="101" width="46" height="23" fill="#61B29F"/>
<path d="M57 109C57 101.458 57 97.6863 59.3431 95.3431C61.6863 93 65.4575 93 73 93H95C102.542 93 106.314 93 108.657 95.3431C111 97.6863 111 101.458 111 109V116H57V109Z" fill="#61B29F"/>
<rect x="80" y="95" width="8" height="21" fill="#EBF1F8"/>
<path d="M73 93H80V116H78.5L73 93Z" fill="#59A593"/>
<path d="M95 93H88V116H89.5L95 93Z" fill="#59A593"/>
<path d="M84 87C79.8466 87 75.7865 85.7097 72.333 83.2923C68.8796 80.8749 66.188 77.439 64.5985 73.419C63.0091 69.3991 62.5932 64.9756 63.4035 60.708C64.2138 56.4404 66.2139 52.5204 69.1508 49.4437C72.0877 46.3669 75.8295 44.2716 79.9031 43.4227C83.9767 42.5739 88.1991 43.0095 92.0364 44.6747C95.8736 46.3398 99.1533 49.1596 101.461 52.7775C103.768 56.3953 105 60.6488 105 65C104.993 70.8324 102.778 76.4237 98.8412 80.5479C94.9045 84.672 89.5673 86.9923 84 87Z" fill="#61B29F"/>
<path d="M83.9945 84.9466C94.121 84.9466 102.33 76.7375 102.33 66.611C102.33 56.4845 94.121 48.2754 83.9945 48.2754C73.8681 48.2754 65.6589 56.4845 65.6589 66.611C65.6589 76.7375 73.8681 84.9466 83.9945 84.9466Z" fill="#B8D8D1"/>
<path d="M83.9946 81.8911V95.1299" stroke="#B8D8D1" stroke-width="8" stroke-miterlimit="10" stroke-linecap="round" stroke-linejoin="round"/>
<path d="M92.3439 71.5991C92.3845 72.7202 92.1987 73.838 91.7976 74.8857C91.3966 75.9334 90.7885 76.8896 90.0097 77.6971C89.2309 78.5045 88.2974 79.1468 87.2648 79.5854C86.2323 80.0241 85.122 80.2502 84.0001 80.2502C82.8783 80.2502 81.7679 80.0241 80.7354 79.5854C79.7029 79.1468 78.7694 78.5045 77.9906 77.6971C77.2118 76.8896 76.6037 75.9334 76.2026 74.8857C75.8016 73.838 75.6158 72.7202 75.6563 71.5991H92.3439Z" fill="white"/>
<path d="M101.774 54.9767C101.686 54.9767 87.8146 45.0122 87.8146 45.0122L84.0274 47.5552L80.2184 45.0122C80.2184 45.0122 66.3466 55.0204 66.2484 54.9767C66.1502 54.9331 64.1638 66.6111 64.1638 66.6111H66.7832C69.5445 66.6139 72.0001 65.6252 74.7562 64.7884C79.0001 63.5 85.5756 60.497 89.4239 58.6386C89.9257 58.3963 90.4757 58.2704 91.0329 58.2704C92.1472 58.2704 93.2376 58.797 93.9305 59.6698C95.7129 61.9303 97.9679 66.6163 101.272 66.6111H103.902C103.902 66.6111 101.872 54.9331 101.774 54.9767Z" fill="#61B29F"/>
</g>
<g filter="url(#filter2_d)">
<path d="M155.997 279.994C173.669 279.994 187.994 265.669 187.994 247.997C187.994 230.326 173.669 216 155.997 216C138.326 216 124 230.326 124 247.997C124 265.669 138.326 279.994 155.997 279.994Z" fill="white"/>
<rect opacity="0.6" x="143.733" y="256" width="24.5333" height="12.2667" fill="#61B29F"/>
<path d="M141.6 260.267C141.6 256.244 141.6 254.233 142.85 252.983C144.099 251.733 146.111 251.733 150.133 251.733H161.867C165.889 251.733 167.901 251.733 169.15 252.983C170.4 254.233 170.4 256.244 170.4 260.267V264H141.6V260.267Z" fill="#61B29F"/>
<path d="M156 250.133C153.468 250.133 150.994 249.382 148.889 247.976C146.784 246.57 145.143 244.57 144.174 242.232C143.205 239.893 142.952 237.319 143.446 234.836C143.94 232.353 145.159 230.072 146.949 228.282C148.739 226.492 151.02 225.273 153.503 224.779C155.986 224.285 158.559 224.539 160.898 225.508C163.237 226.476 165.236 228.117 166.643 230.222C168.049 232.327 168.8 234.802 168.8 237.333C168.795 240.727 167.445 243.98 165.046 246.379C162.646 248.779 159.393 250.129 156 250.133Z" fill="#61B29F"/>
<path d="M155.997 247.438C161.398 247.438 165.776 243.06 165.776 237.659C165.776 232.259 161.398 227.88 155.997 227.88C150.596 227.88 146.218 232.259 146.218 237.659C146.218 243.06 150.596 247.438 155.997 247.438Z" fill="#B8D8D1"/>
<path d="M155.997 245.809V252.869" stroke="#B8D8D1" stroke-width="4.26667" stroke-miterlimit="10" stroke-linecap="round" stroke-linejoin="round"/>
<path d="M160.45 240.319C160.472 240.917 160.373 241.513 160.159 242.072C159.945 242.631 159.621 243.141 159.205 243.572C158.79 244.002 158.292 244.345 157.741 244.579C157.191 244.813 156.598 244.933 156 244.933C155.402 244.933 154.81 244.813 154.259 244.579C153.708 244.345 153.21 244.002 152.795 243.572C152.38 243.141 152.055 242.631 151.841 242.072C151.627 241.513 151.528 240.917 151.55 240.319H160.45Z" fill="white"/>
<path d="M165.479 231.454C165.433 231.454 158.034 226.14 158.034 226.14L156.015 227.496L153.983 226.14C153.983 226.14 146.585 231.477 146.532 231.454C146.48 231.431 145.421 237.659 145.421 237.659H146.818C148.29 237.661 149.6 237.133 151.07 236.687C153.333 236 156.84 234.398 158.893 233.407C159.16 233.278 159.454 233.211 159.751 233.211C160.345 233.211 160.927 233.492 161.296 233.957C162.247 235.163 163.449 237.662 165.211 237.659H166.614C166.614 237.659 165.532 231.431 165.479 231.454Z" fill="#61B29F"/>
</g>
<g filter="url(#filter3_d)">
<path d="M615.996 275.993C638.086 275.993 655.993 258.086 655.993 235.996C655.993 213.907 638.086 196 615.996 196C593.907 196 576 213.907 576 235.996C576 258.086 593.907 275.993 615.996 275.993Z" fill="white"/>
<path d="M616.018 239.656C612.737 239.656 609.53 238.683 606.802 236.86C604.074 235.038 601.947 232.447 600.692 229.415C599.436 226.384 599.108 223.049 599.748 219.83C600.388 216.612 601.968 213.657 604.288 211.336C606.608 209.016 609.564 207.436 612.782 206.796C616 206.156 619.335 206.485 622.367 207.74C625.398 208.996 627.989 211.122 629.812 213.85C631.635 216.578 632.608 219.786 632.608 223.067C632.602 227.465 630.852 231.681 627.742 234.791C624.633 237.901 620.416 239.65 616.018 239.656Z" fill="#61B29F"/>
<path d="M616.018 223.074H599.407V229.826C599.392 231.764 598.909 233.669 598.001 235.38C597.093 237.091 595.786 238.558 594.19 239.656C592.924 240.551 591.909 241.757 591.244 243.158C590.579 244.558 590.285 246.107 590.391 247.654C590.497 249.201 591 250.694 591.85 251.991C592.7 253.287 593.87 254.343 595.246 255.057C596.623 255.771 598.16 256.119 599.71 256.067C601.259 256.015 602.77 255.565 604.095 254.761C605.421 253.956 606.517 252.824 607.279 251.474C608.04 250.123 608.441 248.599 608.444 247.049C608.44 246.521 608.389 245.995 608.291 245.477H616.018V223.074Z" fill="#61B29F"/>
<path d="M615.996 235.298C622.747 235.298 628.22 229.825 628.22 223.074C628.22 216.323 622.747 210.85 615.996 210.85C609.245 210.85 603.773 216.323 603.773 223.074C603.773 229.825 609.245 235.298 615.996 235.298Z" fill="#B8D8D1"/>
<rect opacity="0.6" x="600.667" y="246.667" width="30.6667" height="15.3333" fill="#61B29F"/>
<path d="M598 252C598 246.972 598 244.458 599.562 242.896C601.124 241.333 603.638 241.333 608.667 241.333H623.333C628.362 241.333 630.876 241.333 632.438 242.896C634 244.458 634 246.972 634 252V256.667H598V252Z" fill="#59A593"/>
<path d="M615.997 233.261V242.087" stroke="#B8D8D1" stroke-width="5.33333" stroke-miterlimit="10" stroke-linecap="round" stroke-linejoin="round"/>
<path d="M621.563 226.399C621.59 227.147 621.466 227.892 621.198 228.59C620.931 229.289 620.526 229.926 620.006 230.465C619.487 231.003 618.865 231.431 618.176 231.724C617.488 232.016 616.748 232.167 616 232.167C615.252 232.167 614.512 232.016 613.824 231.724C613.135 231.431 612.513 231.003 611.994 230.465C611.474 229.926 611.069 229.289 610.802 228.59C610.534 227.892 610.41 227.147 610.437 226.399H621.563Z" fill="white"/>
<path d="M627.849 215.318C627.791 215.318 618.543 208.675 618.543 208.675L616.018 210.37L613.479 208.675C613.479 208.675 604.231 215.347 604.166 215.318C604.1 215.289 602.776 223.074 602.776 223.074H604.522C606.363 223.076 608.18 222.66 609.837 221.859C611.495 221.057 612.949 219.891 614.09 218.447C614.321 218.156 614.615 217.921 614.949 217.759C615.284 217.598 615.65 217.514 616.022 217.514C616.393 217.514 616.76 217.598 617.095 217.759C617.429 217.921 617.723 218.156 617.954 218.447C619.093 219.891 620.545 221.059 622.202 221.86C623.858 222.662 625.674 223.077 627.514 223.074H629.268C629.268 223.074 627.915 215.289 627.849 215.318Z" fill="#61B29F"/>
<path d="M623.778 244.486C624.414 243.196 626.253 243.196 626.889 244.486C627.142 244.998 627.63 245.352 628.195 245.435C629.618 245.641 630.186 247.39 629.157 248.394C628.748 248.792 628.561 249.366 628.658 249.929C628.901 251.346 627.413 252.427 626.141 251.758C625.635 251.492 625.032 251.492 624.526 251.758C623.253 252.427 621.766 251.346 622.009 249.929C622.106 249.366 621.919 248.792 621.51 248.394C620.481 247.39 621.049 245.641 622.472 245.435C623.037 245.352 623.525 244.998 623.778 244.486Z" fill="#B8D8D1"/>
<circle cx="625.333" cy="248" r="2" fill="white"/>
</g>
<g filter="url(#filter4_d)">
<path d="M531.995 135.989C565.129 135.989 591.989 109.129 591.989 75.9945C591.989 42.8605 565.129 16 531.995 16C498.86 16 472 42.8605 472 75.9945C472 109.129 498.86 135.989 531.995 135.989Z" fill="white"/>
<mask id="mask0" mask-type="alpha" maskUnits="userSpaceOnUse" x="472" y="16" width="120" height="120">
<path d="M531.995 135.989C565.129 135.989 591.989 109.129 591.989 75.9945C591.989 42.8605 565.129 16 531.995 16C498.86 16 472 42.8605 472 75.9945C472 109.129 498.86 135.989 531.995 135.989Z" fill="white"/>
</mask>
<g mask="url(#mask0)">
<path opacity="0.6" d="M494.011 105C493.929 102.667 494.307 100.342 495.123 98.1617C495.94 95.9817 497.178 93.9923 498.764 92.3122C500.35 90.6321 502.25 89.2958 504.353 88.3831C506.455 87.4704 508.716 87 511 87C513.284 87 515.545 87.4704 517.647 88.3831C519.75 89.2958 521.65 90.6321 523.236 92.3122C524.822 93.9923 526.06 95.9817 526.877 98.1617C527.693 100.342 528.071 102.667 527.989 105L494.011 105Z" fill="#61B29F"/>
<path opacity="0.6" d="M544.008 105C543.95 103.445 544.217 101.894 544.793 100.441C545.369 98.9878 546.243 97.6615 547.363 96.5415C548.482 95.4214 549.824 94.5306 551.308 93.9221C552.792 93.3136 554.388 93 556 93C557.612 93 559.208 93.3136 560.692 93.9221C562.176 94.5306 563.518 95.4214 564.637 96.5415C565.757 97.6615 566.631 98.9878 567.207 100.441C567.783 101.894 568.05 103.445 567.992 105L544.008 105Z" fill="#61B29F"/>
<path d="M504 65H560V97H504V65Z" fill="#61B29F"/>
<rect x="516" y="37" width="32" height="16" rx="2" fill="#61B29F"/>
<rect x="520" y="41" width="24" height="8" fill="white"/>
<path d="M518 53H522V55H518V53Z" fill="#61B29F"/>
<path d="M542 53H546V55H542V53Z" fill="#61B29F"/>
<path d="M502 65H562V61H502V65Z" fill="#59A593"/>
<path d="M500 61H564V55H500V61Z" fill="#61B29F"/>
<path d="M502 105H562V97H502V105Z" fill="#61B29F"/>
<path d="M469 105H595V136H469V105Z" fill="#61B29F"/>
<rect x="508" y="70" width="29" height="23" fill="#B8D8D1"/>
<path opacity="0.4" d="M533 70H535L527 93H525L533 70Z" fill="white"/>
<path opacity="0.4" d="M531 70H532L524 93H523L531 70Z" fill="white"/>
<rect x="541" y="70" width="15" height="27" fill="#B8D8D1"/>
</g>
</g>
<defs>
<filter id="filter0_d" x="120" y="40" width="472" height="344" filterUnits="userSpaceOnUse" color-interpolation-filters="sRGB">
<feFlood flood-opacity="0" result="BackgroundImageFix"/>
<feColorMatrix in="SourceAlpha" type="matrix" values="0 0 0 0 0 0 0 0 0 0 0 0 0 0 0 0 0 0 127 0"/>
<feOffset dy="24"/>
<feGaussianBlur stdDeviation="20"/>
<feColorMatrix type="matrix" values="0 0 0 0 0 0 0 0 0 0 0 0 0 0 0 0 0 0 0.1 0"/>
<feBlend mode="normal" in2="BackgroundImageFix" result="effect1_dropShadow"/>
<feBlend mode="normal" in="SourceGraphic" in2="effect1_dropShadow" result="shape"/>
</filter>
<filter id="filter1_d" x="0" y="18" width="168" height="168" filterUnits="userSpaceOnUse" color-interpolation-filters="sRGB">
<feFlood flood-opacity="0" result="BackgroundImageFix"/>
<feColorMatrix in="SourceAlpha" type="matrix" values="0 0 0 0 0 0 0 0 0 0 0 0 0 0 0 0 0 0 127 0"/>
<feOffset dy="16"/>
<feGaussianBlur stdDeviation="12"/>
<feColorMatrix type="matrix" values="0 0 0 0 0 0 0 0 0 0 0 0 0 0 0 0 0 0 0.1 0"/>
<feBlend mode="normal" in2="BackgroundImageFix" result="effect1_dropShadow"/>
<feBlend mode="normal" in="SourceGraphic" in2="effect1_dropShadow" result="shape"/>
</filter>
<filter id="filter2_d" x="100" y="208" width="112" height="112" filterUnits="userSpaceOnUse" color-interpolation-filters="sRGB">
<feFlood flood-opacity="0" result="BackgroundImageFix"/>
<feColorMatrix in="SourceAlpha" type="matrix" values="0 0 0 0 0 0 0 0 0 0 0 0 0 0 0 0 0 0 127 0"/>
<feOffset dy="16"/>
<feGaussianBlur stdDeviation="12"/>
<feColorMatrix type="matrix" values="0 0 0 0 0 0 0 0 0 0 0 0 0 0 0 0 0 0 0.1 0"/>
<feBlend mode="normal" in2="BackgroundImageFix" result="effect1_dropShadow"/>
<feBlend mode="normal" in="SourceGraphic" in2="effect1_dropShadow" result="shape"/>
</filter>
<filter id="filter3_d" x="552" y="188" width="128" height="128" filterUnits="userSpaceOnUse" color-interpolation-filters="sRGB">
<feFlood flood-opacity="0" result="BackgroundImageFix"/>
<feColorMatrix in="SourceAlpha" type="matrix" values="0 0 0 0 0 0 0 0 0 0 0 0 0 0 0 0 0 0 127 0"/>
<feOffset dy="16"/>
<feGaussianBlur stdDeviation="12"/>
<feColorMatrix type="matrix" values="0 0 0 0 0 0 0 0 0 0 0 0 0 0 0 0 0 0 0.1 0"/>
<feBlend mode="normal" in2="BackgroundImageFix" result="effect1_dropShadow"/>
<feBlend mode="normal" in="SourceGraphic" in2="effect1_dropShadow" result="shape"/>
</filter>
<filter id="filter4_d" x="448" y="8" width="168" height="168" filterUnits="userSpaceOnUse" color-interpolation-filters="sRGB">
<feFlood flood-opacity="0" result="BackgroundImageFix"/>
<feColorMatrix in="SourceAlpha" type="matrix" values="0 0 0 0 0 0 0 0 0 0 0 0 0 0 0 0 0 0 127 0"/>
<feOffset dy="16"/>
<feGaussianBlur stdDeviation="12"/>
<feColorMatrix type="matrix" values="0 0 0 0 0 0 0 0 0 0 0 0 0 0 0 0 0 0 0.1 0"/>
<feBlend mode="normal" in2="BackgroundImageFix" result="effect1_dropShadow"/>
<feBlend mode="normal" in="SourceGraphic" in2="effect1_dropShadow" result="shape"/>
</filter>
</defs>
</svg>
